<?xml version="1.0" encoding="utf-8"?><svg xmlns="http://www.w3.org/2000/svg" xmlns:xlink="http://www.w3.org/1999/xlink" width="1319" height="657" preserveAspectRatio="xMidYMid" viewBox="0 0 1319 657" style="z-index:1;margin-right:-2px;display:block;background-repeat-y:initial;background-repeat-x:initial;animation-play-state:paused" ><g transform="translate(659.5,328.5) scale(1,1) translate(-659.5,-328.5)" style="transform:matrix(1, 0, 0, 1, 0, 0);animation-play-state:paused" ><linearGradient id="lg-0.7298602274870045" x1="0" x2="1" y1="0" y2="0" style="animation-play-state:paused" ><stop stop-color="#dce863" offset="0" style="animation-play-state:paused" ></stop>

  
<stop stop-color="#e79c7e" offset="1" style="animation-play-state:paused" ></stop></linearGradient>
<path d="M 0 0 L 0 234.061 Q 131.9 386.145 263.8 350.704 T 527.6 194.03 T 791.4 83.2237 T 1055.2 226.18 T 1319 262.819 L 1319 0 Z" fill="url(#lg-0.7298602274870045)" opacity="0.4" style="opacity:0.4;animation-play-state:paused" ></path>
<path d="M 0 0 L 0 128.036 Q 131.9 272.259 263.8 245.427 T 527.6 227.168 T 791.4 149.416 T 1055.2 353.251 T 1319 104.303 L 1319 0 Z" fill="url(#lg-0.7298602274870045)" opacity="0.4" style="opacity:0.4;animation-play-state:paused" ></path>
<path d="M 0 0 L 0 304.872 Q 131.9 254.006 263.8 222.253 T 527.6 69.6149 T 791.4 302.919 T 1055.2 175.467 T 1319 253.38 L 1319 0 Z" fill="url(#lg-0.7298602274870045)" opacity="0.4" style="opacity:0.4;animation-play-state:paused" ></path>
<path d="M 0 0 L 0 300.437 Q 131.9 267.392 263.8 244.973 T 527.6 126.592 T 791.4 162.841 T 1055.2 263.188 T 1319 144.145 L 1319 0 Z" fill="url(#lg-0.7298602274870045)" opacity="0.4" style="opacity:0.4;animation-play-state:paused" ></path>
<path d="M 0 0 L 0 146.02 Q 131.9 196.305 263.8 161.412 T 527.6 225.262 T 791.4 242.701 T 1055.2 102.075 T 1319 175.856 L 1319 0 Z" fill="url(#lg-0.7298602274870045)" opacity="0.4" style="opacity:0.4;animation-play-state:paused" ></path></g></svg>